,
.   http://www.scenetime.com/signup.php  ---&gt;  Hottest scene tracker on the net !!!  

    Join Now   http://www.scenetime.com/signup.php

    seed back for speed


 



...................................NFO:.................................................








































          
          
              
              
                    
                    
                    
                    

Conan.The.Barbarian.2011.BRRip.XviD.AC3-SiC

Poster:
[img]http://img72.imageshack.us/img72/161/mv5bmtq1nduyodk5nf5bml5.jpg[/img]

IMDB Link:
http://www.imdb.com/title/tt0816462/

Description:
The tale of Conan the Cimmerian and his adventures across the continent of Hyboria on a quest to avenge the murder of his father and the slaughter of his village. 

MediaInfo:
General
Complete name                    : Conan.The.Barbarian.2011.BRRip.XviD.AC3-SiC.avi
Format                           : AVI
Format/Info                      : Audio Video Interleave
File size                        : 1.37 GiB
Duration                         : 1h 52mn
Overall bit rate                 : 1 744 Kbps

Video
ID                               : 0
Format                           : MPEG-4 Visual
Format profile                   : Advanced Simple@L5
Format settings, BVOP            : Yes
Format settings, QPel            : No
Format settings, GMC             : No warppoints
Format settings, Matrix          : Default (MPEG)
Muxing mode                      : Packed bitstream
Codec ID                         : XVID
Codec ID/Hint                    : XviD
Duration                         : 1h 52mn
Bit rate                         : 1 352 Kbps
Width                            : 720 pixels
Height                           : 304 pixels
Display aspect ratio             : 2.35:1
Frame rate                       : 23.976 fps
Color space                      : YUV
Chroma subsampling               : 4:2:0
Bit depth                        : 8 bits
Scan type                        : Progressive
Bits/(Pixel*Frame)               : 0.258
Stream size                      : 1.06 GiB (78%)
Writing library                  : XviD 64

Audio
ID                               : 1
Format                           : AC-3
Format/Info                      : Audio Coding 3
Mode extension                   : CM (complete main)
Codec ID                         : 2000
Duration                         : 1h 52mn
Bit rate mode                    : Constant
Bit rate                         : 384 Kbps
Channel(s)                       : 6 channels
Channel positions                : Front: L C R, Side: L R, LFE
Sampling rate                    : 48.0 KHz
Bit depth                        : 16 bits
Stream size                      : 310 MiB (22%)
Alignment                        : Aligned on interleaves
Interleave, duration             : 64 ms (1.53 video frames)
Interleave, preload duration     : 192 ms
Title                            : Conan.The.Barbarian.2011.BluRay.1080p.DTS.x264-CHD - [2] English


Screenshots:
[img]http://img839.imageshack.us/img839/6606/snap1ov.png[/img]
[img]http://img534.imageshack.us/img534/4979/snap2q.png[/img]
[img]http://img341.imageshack.us/img341/3228/snap3xm.png[/img]
[img]http://img843.imageshack.us/img843/3143/snap4x.png[/img]
[img]http://img192.imageshack.us/img192/3314/snap5e.png[/img]


Note : did my thing and it turned out nice... 

Source: 720p CHD thnx

Enjoy!

Respects to CaptainHomey, Cyanide, CM8, Rx, THC, ELEKTRI4KA, 
Killerhz, PA, YeFsTe, Box, MrRep and everyone in the struggle...